<svg width="98" height="107" viewBox="0 0 98 107" fill="none" xmlns="http://www.w3.org/2000/svg">
<mask id="path-1-inside-1_238_6917" fill="white">
<path fill-rule="evenodd" clip-rule="evenodd" d="M1 32C7.95571 32 13.5534 26.5725 16.5881 20.3137C22.4178 8.29021 34.7408 0 49 0C63.2592 0 75.5822 8.29021 81.4119 20.3137C84.4466 26.5725 90.0443 32 97 32V32C97.5523 32 98 32.4477 98 33V106C98 106.552 97.5523 107 97 107H1C0.447715 107 0 106.552 0 106V33C0 32.4477 0.447715 32 1 32V32Z"/>
</mask>
<path fill-rule="evenodd" clip-rule="evenodd" d="M1 32C7.95571 32 13.5534 26.5725 16.5881 20.3137C22.4178 8.29021 34.7408 0 49 0C63.2592 0 75.5822 8.29021 81.4119 20.3137C84.4466 26.5725 90.0443 32 97 32V32C97.5523 32 98 32.4477 98 33V106C98 106.552 97.5523 107 97 107H1C0.447715 107 0 106.552 0 106V33C0 32.4477 0.447715 32 1 32V32Z" fill="white"/>
<path d="M17.4879 20.75C23.1568 9.05811 35.1383 1 49 1V-1C34.3432 -1 21.6788 7.52232 15.6883 19.8774L17.4879 20.75ZM49 1C62.8617 1 74.8432 9.05811 80.5121 20.75L82.3117 19.8774C76.3212 7.52232 63.6568 -1 49 -1V1ZM97 33H99C99 31.8954 98.1046 31 97 31V33ZM97 33V106H99V33H97ZM97 106V108C98.1046 108 99 107.105 99 106H97ZM97 106H1V108H97V106ZM1 106H1H-1C-1 107.105 -0.104571 108 1 108V106ZM1 106V33H-1V106H1ZM1 33V31C-0.10457 31 -1 31.8954 -1 33H1ZM80.5121 20.75C83.624 27.1682 89.4911 33 97 33V31C90.5975 31 85.2691 25.9769 82.3117 19.8774L80.5121 20.75ZM15.6883 19.8774C12.7309 25.9769 7.40249 31 1 31V33C8.50892 33 14.376 27.1682 17.4879 20.75L15.6883 19.8774Z" fill="#F6F6F6" mask="url(#path-1-inside-1_238_6917)"/>
<rect y="33" width="98" height="73" fill="white"/>
</svg>
